ModelForces
version=1
nRows=4
nColumns=199
inDegrees=no

This file contains the forces exerted on a model during a simulation.

A force is a generalized force, meaning that it can be either a force (N) or a torque (Nm).

Units are S.I. units (second, meters, Newtons, ...)
Angles are in degrees.

endheader
time	glut_med1_r	glut_med2_r	glut_med3_r	glut_min1_r	glut_min2_r	glut_min3_r	semimem_r	semiten_r	bifemlh_r	bifemsh_r	sar_r	add_long_r	add_brev_r	add_mag1_r	add_mag2_r	add_mag3_r	tfl_r	pect_r	grac_r	glut_max1_r	glut_max2_r	glut_max3_r	iliacus_r	psoas_r	quad_fem_r	gem_r	peri_r	rect_fem_r	vas_med_r	vas_int_r	vas_lat_r	med_gas_r	lat_gas_r	soleus_r	tib_post_r	flex_dig_r	flex_hal_r	tib_ant_r	per_brev_r	per_long_r	per_tert_r	ext_dig_r	ext_hal_r	glut_med1_l	glut_med2_l	glut_med3_l	glut_min1_l	glut_min2_l	glut_min3_l	semimem_l	semiten_l	bifemlh_l	bifemsh_l	sar_l	add_long_l	add_brev_l	add_mag1_l	add_mag2_l	add_mag3_l	tfl_l	pect_l	grac_l	glut_max1_l	glut_max2_l	glut_max3_l	iliacus_l	psoas_l	quad_fem_l	gem_l	peri_l	rect_fem_l	vas_med_l	vas_int_l	vas_lat_l	med_gas_l	lat_gas_l	soleus_l	tib_post_l	flex_dig_l	flex_hal_l	tib_ant_l	per_brev_l	per_long_l	per_tert_l	ext_dig_l	ext_hal_l	ercspn_r	ercspn_l	intobl_r	intobl_l	extobl_r	extobl_l	femur_lat_meniscii_l.femur_lat_l.force.X	femur_lat_meniscii_l.femur_lat_l.force.Y	femur_lat_meniscii_l.femur_lat_l.force.Z	femur_lat_meniscii_l.femur_lat_l.torque.X	femur_lat_meniscii_l.femur_lat_l.torque.Y	femur_lat_meniscii_l.femur_lat_l.torque.Z	femur_lat_meniscii_l.meniscus_lat_l.force.X	femur_lat_meniscii_l.meniscus_lat_l.force.Y	femur_lat_meniscii_l.meniscus_lat_l.force.Z	femur_lat_meniscii_l.meniscus_lat_l.torque.X	femur_lat_meniscii_l.meniscus_lat_l.torque.Y	femur_lat_meniscii_l.meniscus_lat_l.torque.Z	femur_med_meniscii_l.femur_med_l.force.X	femur_med_meniscii_l.femur_med_l.force.Y	femur_med_meniscii_l.femur_med_l.force.Z	femur_med_meniscii_l.femur_med_l.torque.X	femur_med_meniscii_l.femur_med_l.torque.Y	femur_med_meniscii_l.femur_med_l.torque.Z	femur_med_meniscii_l.meniscus_med_l.force.X	femur_med_meniscii_l.meniscus_med_l.force.Y	femur_med_meniscii_l.meniscus_med_l.force.Z	femur_med_meniscii_l.meniscus_med_l.torque.X	femur_med_meniscii_l.meniscus_med_l.torque.Y	femur_med_meniscii_l.meniscus_med_l.torque.Z	femur_lat_meniscii_r.femur_lat_r.force.X	femur_lat_meniscii_r.femur_lat_r.force.Y	femur_lat_meniscii_r.femur_lat_r.force.Z	femur_lat_meniscii_r.femur_lat_r.torque.X	femur_lat_meniscii_r.femur_lat_r.torque.Y	femur_lat_meniscii_r.femur_lat_r.torque.Z	femur_lat_meniscii_r.meniscus_lat_r.force.X	femur_lat_meniscii_r.meniscus_lat_r.force.Y	femur_lat_meniscii_r.meniscus_lat_r.force.Z	femur_lat_meniscii_r.meniscus_lat_r.torque.X	femur_lat_meniscii_r.meniscus_lat_r.torque.Y	femur_lat_meniscii_r.meniscus_lat_r.torque.Z	femur_med_meniscii_r.femur_med_r.force.X	femur_med_meniscii_r.femur_med_r.force.Y	femur_med_meniscii_r.femur_med_r.force.Z	femur_med_meniscii_r.femur_med_r.torque.X	femur_med_meniscii_r.femur_med_r.torque.Y	femur_med_meniscii_r.femur_med_r.torque.Z	femur_med_meniscii_r.meniscus_med_r.force.X	femur_med_meniscii_r.meniscus_med_r.force.Y	femur_med_meniscii_r.meniscus_med_r.force.Z	femur_med_meniscii_r.meniscus_med_r.torque.X	femur_med_meniscii_r.meniscus_med_r.torque.Y	femur_med_meniscii_r.meniscus_med_r.torque.Z	femur_med_tibia_l.tibia_upper_l.force.X	femur_med_tibia_l.tibia_upper_l.force.Y	femur_med_tibia_l.tibia_upper_l.force.Z	femur_med_tibia_l.tibia_upper_l.torque.X	femur_med_tibia_l.tibia_upper_l.torque.Y	femur_med_tibia_l.tibia_upper_l.torque.Z	femur_med_tibia_l.femur_med_l.force.X	femur_med_tibia_l.femur_med_l.force.Y	femur_med_tibia_l.femur_med_l.force.Z	femur_med_tibia_l.femur_med_l.torque.X	femur_med_tibia_l.femur_med_l.torque.Y	femur_med_tibia_l.femur_med_l.torque.Z	femur_lat_tibia_l.tibia_upper_l.force.X	femur_lat_tibia_l.tibia_upper_l.force.Y	femur_lat_tibia_l.tibia_upper_l.force.Z	femur_lat_tibia_l.tibia_upper_l.torque.X	femur_lat_tibia_l.tibia_upper_l.torque.Y	femur_lat_tibia_l.tibia_upper_l.torque.Z	femur_lat_tibia_l.femur_lat_l.force.X	femur_lat_tibia_l.femur_lat_l.force.Y	femur_lat_tibia_l.femur_lat_l.force.Z	femur_lat_tibia_l.femur_lat_l.torque.X	femur_lat_tibia_l.femur_lat_l.torque.Y	femur_lat_tibia_l.femur_lat_l.torque.Z	femur_med_tibia_r.tibia_upper_r.force.X	femur_med_tibia_r.tibia_upper_r.force.Y	femur_med_tibia_r.tibia_upper_r.force.Z	femur_med_tibia_r.tibia_upper_r.torque.X	femur_med_tibia_r.tibia_upper_r.torque.Y	femur_med_tibia_r.tibia_upper_r.torque.Z	femur_med_tibia_r.femur_med_r.force.X	femur_med_tibia_r.femur_med_r.force.Y	femur_med_tibia_r.femur_med_r.force.Z	femur_med_tibia_r.femur_med_r.torque.X	femur_med_tibia_r.femur_med_r.torque.Y	femur_med_tibia_r.femur_med_r.torque.Z	femur_lat_tibia_r.tibia_upper_r.force.X	femur_lat_tibia_r.tibia_upper_r.force.Y	femur_lat_tibia_r.tibia_upper_r.force.Z	femur_lat_tibia_r.tibia_upper_r.torque.X	femur_lat_tibia_r.tibia_upper_r.torque.Y	femur_lat_tibia_r.tibia_upper_r.torque.Z	femur_lat_tibia_r.femur_lat_r.force.X	femur_lat_tibia_r.femur_lat_r.force.Y	femur_lat_tibia_r.femur_lat_r.force.Z	femur_lat_tibia_r.femur_lat_r.torque.X	femur_lat_tibia_r.femur_lat_r.torque.Y	femur_lat_tibia_r.femur_lat_r.torque.Z	aACL_R	pACL_R	aPCL_R	pPCL_R	aMCL_R	aLCL_R	aPCL_L	pPCL_L	aMCL_L	aLCL_L
      0.11123061	     15.49489240	     28.06394165	    143.08430971	      4.90903673	      5.51632847	     11.33593262	    257.27632810	    180.99988947	    295.81698942	    277.29725388	    103.17202454	      9.18415973	      8.10494876	     20.11188212	     16.50208707	     84.02504341	      0.00000000	      3.13331671	    103.76185861	     10.84848889	     16.29901172	     59.97785658	     10.09474610	      9.64603089	    188.99536379	     37.04833007	     74.46101611	     21.11180838	     41.68059424	     43.92091533	     58.64876781	      0.00000000	      0.00000000	      0.00000000	      0.00000000	      0.00000000	      0.00000000	     33.73923964	      2.39215888	      3.20200757	     23.32735699	     24.33305272	      6.26789778	     15.54741120	     11.11008084	     11.98836615	      5.07240196	      5.81811450	      6.56642649	     19.69696424	      8.36601752	     17.01412412	     13.96924116	      2.89052939	     11.09201059	      7.85290178	      5.70547167	      4.87075007	      8.36076990	      6.81075667	      4.29008421	      2.99804475	      7.18499994	     10.93598052	      8.25085721	     32.67762423	     24.37763820	      7.01579933	      4.50524169	      9.57789803	     23.45958175	     13.17756875	     15.28654230	     16.42353391	     34.13960453	     15.87951662	     72.94007101	     60.31350218	      7.78796559	      7.64475476	     18.23703109	      9.86562035	     24.36297127	      3.76537567	     12.05409676	      3.76173853	     47.77353516	     47.77353516	     18.11998496	     18.11998496	     35.08171291	     35.08171291	      2.76307435	     50.99597937	     -9.56042239	      5.21997485	     -0.02578839	      1.48581788	     -2.76307435	    -50.99597937	      9.56042239	     -1.74637766	      0.02558040	     -0.48301696	     -3.31599387	     20.97615968	     -3.40468921	      0.94473225	     -0.02138609	     -1.00501789	      3.31599387	    -20.97615968	      3.40468921	      0.28075727	      0.00368718	     -0.29758878	   -273.60122352	     77.72655484	     21.75181833	     -1.82038776	    -15.36211542	     29.30723926	    273.60122352	    -77.72655484	    -21.75181833	      2.48435176	      7.65496915	      6.58453211	   -403.04483560	    145.20739596	    -41.66495727	      2.88735794	     24.80161594	     55.30897266	    403.04483560	   -145.20739596	     41.66495727	     -3.36992169	     -7.55073006	      9.48051036	      0.00000000	      0.00000000	      0.00000000	      0.00000000	      0.00000000	      0.00000000	      0.00000000	      0.00000000	      0.00000000	      0.00000000	      0.00000000	      0.00000000	      0.00000000	      0.00000000	      0.00000000	      0.00000000	      0.00000000	      0.00000000	      0.00000000	      0.00000000	      0.00000000	      0.00000000	      0.00000000	      0.00000000	    659.42429645	   -228.56463502	     51.51540812	     -5.32440057	    -12.39787075	     13.73882400	   -659.42429645	    228.56463502	    -51.51540812	      4.85932145	     34.15953516	     88.76703867	      0.00000000	      0.00000000	      0.00000000	      0.00000000	      0.00000000	      0.00000000	      0.00000000	      0.00000000	      0.00000000	      0.00000000	      0.00000000	      0.00000000	      0.00000000	      0.00000000	    272.39987173	    271.88343767	      0.00000000	      0.00000000	      0.00000000	      0.00000000	    116.99866359	      0.00000000
      0.11158065	     15.45742426	     28.04069685	    143.06525336	      4.89819399	      5.50384609	     11.32130972	    256.48085426	    180.77152761	    296.14029165	    277.53297407	    103.12701078	      9.16296851	      8.08718935	     20.09658639	     16.48778737	     84.00958481	      0.00000000	      3.12636992	    103.68157659	     10.82311586	     16.26083399	     59.95828470	     10.07147856	      9.62322835	    188.98611233	     37.04347535	     74.44725866	     21.14791914	     41.66079510	     43.91596439	     58.65517852	      0.00000000	      0.00000000	      0.00000000	      0.00000000	      0.00000000	      0.00000000	     33.79073383	      2.36539829	      3.14292623	     23.50973545	     24.42084860	      6.28497572	     15.50981082	     11.08457503	     11.96055107	      5.06119026	      5.80575838	      6.55057113	     19.64744626	      8.34587554	     16.97136054	     13.93768886	      2.88416918	     11.06628535	      7.83570058	      5.69240062	      4.85936363	      8.34025390	      6.79800261	      4.28053238	      2.99133777	      7.16839182	     10.91066630	      8.23153102	     32.62999032	     24.32341713	      6.99997619	      4.49734174	      9.55364262	     23.40071027	     13.14637299	     15.24994171	     16.38410686	     34.05379803	     15.83946662	     72.75478420	     60.23006043	      7.76835740	      7.62537981	     18.19159771	      9.84051023	     24.30906490	      3.75702840	     12.02303932	      3.75202596	     47.66771856	     47.66771856	     18.07709721	     18.07709721	     35.04225065	     35.04225065	      2.76307435	     50.99597937	     -9.56042239	      5.21997485	     -0.02578839	      1.48581788	     -2.76307435	    -50.99597937	      9.56042239	     -1.74637766	      0.02558040	     -0.48301696	     -3.31599387	     20.97615968	     -3.40468921	      0.94473225	     -0.02138609	     -1.00501789	      3.31599387	    -20.97615968	      3.40468921	      0.28075727	      0.00368718	     -0.29758878	   -273.58248337	     77.27206303	     21.70142314	     -1.80424979	    -15.34273862	     29.09982368	    273.58248337	    -77.27206303	    -21.70142314	      2.46770010	      7.65462072	      6.63908186	   -409.17705231	    146.40968584	    -41.68635054	      2.91190944	     24.85697275	     55.69230007	    409.17705231	   -146.40968584	     41.68635054	     -3.39418338	     -7.57757468	      9.72975374	      0.00000000	      0.00000000	      0.00000000	      0.00000000	      0.00000000	      0.00000000	      0.00000000	      0.00000000	      0.00000000	      0.00000000	      0.00000000	      0.00000000	      0.00000000	      0.00000000	      0.00000000	      0.00000000	      0.00000000	      0.00000000	      0.00000000	      0.00000000	      0.00000000	      0.00000000	      0.00000000	      0.00000000	    657.58643952	   -231.60866040	     51.66515482	     -5.38329170	    -12.35902463	     13.70681531	   -657.58643952	    231.60866040	    -51.66515482	      4.92031420	     34.17897793	     90.00211385	      0.00000000	      0.00000000	      0.00000000	      0.00000000	      0.00000000	      0.00000000	      0.00000000	      0.00000000	      0.00000000	      0.00000000	      0.00000000	      0.00000000	      0.00000000	      0.00000000	    275.79647400	    273.86169725	      0.00000000	      0.00000000	      0.00000000	      0.00000000	    116.99866359	      0.00000000
      0.11193068	     15.42013641	     28.01756513	    143.04628814	      4.88740299	      5.49142369	     11.30675957	    255.73349077	    180.57273810	    296.52043462	    277.81229738	    103.09637065	      9.14187985	      8.06951441	     20.08136521	     16.47355825	     83.99420194	      0.00000000	      3.11945642	    103.62108381	     10.79786539	     16.22284068	     59.93880808	     10.04832436	      9.60053756	    188.97690475	     37.03864411	     74.43357138	     21.18416915	     41.63981157	     43.90970682	     58.66016382	      0.00000000	      0.00000000	      0.00000000	      0.00000000	      0.00000000	      0.00000000	     33.84262302	      2.33987315	      3.08628873	     23.62481700	     24.50988444	      6.30235452	     15.47239135	     11.05919215	     11.93287038	      5.05003206	      5.79346187	      6.53479210	     19.59815256	      8.32583068	     16.92879491	     13.90628828	      2.87783929	     11.04068439	      7.81858121	      5.67939273	      4.84803244	      8.31983602	      6.78530935	      4.27102628	      2.98466292	      7.15186431	     10.88547484	      8.21229851	     32.58259101	     24.26946085	      6.98422903	      4.48948082	      9.52949560	     23.34211309	     13.11532970	     15.21351957	     16.34487307	     33.96836274	     15.79959066	     72.57032641	     60.14701417	      7.74883194	      7.60608851	     18.14637858	      9.81551569	     24.25541489	      3.74872192	     11.99213062	      3.74236157	     47.56240731	     47.56240731	     18.03441668	     18.03441668	     35.00298427	     35.00298427	      2.76307435	     50.99597937	     -9.56042239	      5.21997485	     -0.02578839	      1.48581788	     -2.76307435	    -50.99597937	      9.56042239	     -1.74637766	      0.02558040	     -0.48301696	     -3.31599387	     20.97615968	     -3.40468921	      0.94473225	     -0.02138609	     -1.00501789	      3.31599387	    -20.97615968	      3.40468921	      0.28075727	      0.00368718	     -0.29758878	   -270.32908317	     80.09673823	     21.19052757	     -1.87596015	    -15.04022243	     30.29862485	    270.32908317	    -80.09673823	    -21.19052757	      2.53800922	      7.54120720	      6.49223726	   -405.25842156	    147.30091617	    -42.37076728	      2.91513446	     25.12174192	     56.06586902	    405.25842156	   -147.30091617	     42.37076728	     -3.41191644	     -7.58337594	      9.65733208	      0.00000000	      0.00000000	      0.00000000	      0.00000000	      0.00000000	      0.00000000	      0.00000000	      0.00000000	      0.00000000	      0.00000000	      0.00000000	      0.00000000	      0.00000000	      0.00000000	      0.00000000	      0.00000000	      0.00000000	      0.00000000	      0.00000000	      0.00000000	      0.00000000	      0.00000000	      0.00000000	      0.00000000	    652.91887541	   -233.71596146	     51.20345676	     -5.40905519	    -12.25706216	     13.60757252	   -652.91887541	    233.71596146	    -51.20345676	      4.95855778	     33.89042952	     90.88149623	      0.00000000	      0.00000000	      0.00000000	      0.00000000	      0.00000000	      0.00000000	      0.00000000	      0.00000000	      0.00000000	      0.00000000	      0.00000000	      0.00000000	      0.00000000	      0.00000000	    279.22746496	    276.01268984	      0.00000000	      0.00000000	      0.00000000	      0.00000000	    116.99866359	      0.00000000
      0.11228072	     15.38302795	     27.99454593	    143.02741359	      4.87666347	      5.47906098	     11.29228180	    255.01450820	    180.38908900	    296.92369061	    278.05209927	    103.06629600	      9.12089325	      8.05192354	     20.06621820	     16.45939934	     83.97889441	      0.00000000	      3.11257602	    103.56833178	     10.77273688	     16.18503088	     59.91942621	     10.02528293	      9.57795795	    188.96774084	     37.03383625	     74.41995390	     21.21891441	     41.61905089	     43.90094203	     58.65811994	      0.00000000	      0.00000000	      0.00000000	      0.00000000	      0.00000000	      0.00000000	     33.89532439	      2.31545051	      3.03190132	     23.70978938	     24.60045087	      6.32009898	     15.43515190	     11.03393159	     11.90532341	      5.03892711	      5.78122467	      6.51908903	     19.54908217	      8.30588247	     16.88642633	     13.87503864	      2.87153955	     11.01520707	      7.80154325	      5.66644768	      4.83675619	      8.29951577	      6.77267660	      4.26156570	      2.97802005	      7.13541699	     10.86040554	      8.19315922	     32.53542508	     24.21576804	      6.96855749	      4.48165873	      9.50545651	     23.28378896	     13.08443810	     15.17727496	     16.30583155	     33.88329718	     15.75988802	     72.38669409	     60.06436166	      7.72938864	      7.58688027	     18.10137269	      9.79063620	     24.20201994	      3.74045604	     11.96137013	      3.73274520	     47.45759890	     47.45759890	     17.99194233	     17.99194233	     34.96391273	     34.96391273	      2.76307435	     50.99597937	     -9.56042239	      5.21997485	     -0.02578839	      1.48581788	     -2.76307435	    -50.99597937	      9.56042239	     -1.74637766	      0.02558040	     -0.48301696	     -3.31599387	     20.97615968	     -3.40468921	      0.94473225	     -0.02138609	     -1.00501789	      3.31599387	    -20.97615968	      3.40468921	      0.28075727	      0.00368718	     -0.29758878	   -270.89687259	     80.49347704	     21.24532530	     -1.88123051	    -15.08503879	     30.44260145	    270.89687259	    -80.49347704	    -21.24532530	      2.54725089	      7.56582224	      6.53827385	   -400.32046824	    148.77610779	    -41.06990791	      2.90661365	     24.43891059	     56.70447694	    400.32046824	   -148.77610779	     41.06990791	     -3.37443282	     -7.41502365	      9.52467638	      0.00000000	      0.00000000	      0.00000000	      0.00000000	      0.00000000	      0.00000000	      0.00000000	      0.00000000	      0.00000000	      0.00000000	      0.00000000	      0.00000000	      0.00000000	      0.00000000	      0.00000000	      0.00000000	      0.00000000	      0.00000000	      0.00000000	      0.00000000	      0.00000000	      0.00000000	      0.00000000	      0.00000000	    653.92148878	   -236.94768358	     51.74460345	     -5.48611261	    -12.29504415	     13.65452934	   -653.92148878	    236.94768358	    -51.74460345	      5.03000791	     34.14643502	     92.17086602	      0.00000000	      0.00000000	      0.00000000	      0.00000000	      0.00000000	      0.00000000	      0.00000000	      0.00000000	      0.00000000	      0.00000000	      0.00000000	      0.00000000	      0.00000000	      0.00000000	    282.66590126	    278.21887614	      0.00000000	      0.00000000	      0.00000000	      0.00000000	    116.99866359	      0.00000000
